<svg height="512pt" viewBox="-22 0 512 512" width="512pt" xmlns="http://www.w3.org/2000/svg"><path d="m263.207031 35.089844-258.105469 259.675781 21.210938 21.210937 258.105469-259.675781c34-34 93.3125-33.96875 127.28125 0 35.082031 35.097657 35.082031 92.195313 0 127.28125l-279.316407 280.898438c-23.410156 23.363281-61.449218 23.394531-84.859374 0-23.394532-23.394531-23.394532-61.464844 0-84.859375l279.316406-280.882813c11.6875-11.6875 30.746094-11.6875 42.4375 0s11.6875 30.71875 0 42.421875l-258.105469 259.671875 21.210937 21.210938 258.105469-259.671875c23.378907-23.410156 23.378907-61.464844 0-84.84375-23.421875-23.425782-61.464843-23.394532-84.859375 0l-279.316406 280.882812c-35.082031 35.085938-35.082031 92.183594 0 127.28125 35.097656 35.070313 92.164062 35.085938 127.28125 0l279.316406-280.898437c46.785156-46.773438 46.785156-122.902344 0-169.703125-46.800781-46.800782-122.929687-46.773438-169.703125 0zm0 0"/></svg>