<?xml version="1.0" encoding="UTF-8"?>
<svg xmlns="http://www.w3.org/2000/svg" xmlns:xlink="http://www.w3.org/1999/xlink" width="35pt" height="35pt" viewBox="0 0 35 35" version="1.1">
<g id="surface1">
<path style=" stroke:none;fill-rule:nonzero;fill:rgb(0%,0%,0%);fill-opacity:1;" d="M 17.5 0 C 7.851562 0 0 7.851562 0 17.5 C 0 27.148438 7.851562 35 17.5 35 C 27.148438 35 35 27.148438 35 17.5 C 35 7.851562 27.148438 0 17.5 0 Z M 24.0625 10.9375 C 25.269531 10.9375 26.25 11.917969 26.25 13.125 C 26.25 14.332031 25.269531 15.3125 24.0625 15.3125 C 22.855469 15.3125 21.875 14.332031 21.875 13.125 C 21.875 11.917969 22.855469 10.9375 24.0625 10.9375 Z M 10.9375 10.9375 C 12.144531 10.9375 13.125 11.917969 13.125 13.125 C 13.125 14.332031 12.144531 15.3125 10.9375 15.3125 C 9.730469 15.3125 8.75 14.332031 8.75 13.125 C 8.75 11.917969 9.730469 10.9375 10.9375 10.9375 Z M 17.5 30.625 C 11.648438 30.625 6.457031 26.699219 4.875 21.078125 C 4.78125 20.746094 4.851562 20.394531 5.058594 20.121094 C 5.261719 19.847656 5.585938 19.6875 5.929688 19.6875 L 29.070312 19.6875 C 29.414062 19.6875 29.738281 19.847656 29.941406 20.121094 C 30.148438 20.394531 30.214844 20.746094 30.125 21.078125 C 28.542969 26.699219 23.351562 30.625 17.5 30.625 Z M 17.5 30.625 "/>
</g>
</svg>
